# xmcd CD database file
#
# Track frame offsets:
#	150
#	15377
#	26823
#	40737
#	55922
#	69181
#	83802
#	98351
#	111148
#	125780
#	140528
#	160979
#	178364
#	195956
#	216457
#	230811
#	247269
#	262355
#	274937
#	291501
#
# Disc length: 4120 seconds
#
# Revision: 1
# Processed by: cddbd v1.5.2PL0 Copyright (c) Steve Scherf et al.
# Submitted via: CDex 1.51
#
DISCID=36101614
DTITLE=Various Artist - 100 Oorspronklike Afrikaanse Treffers - cd3
DYEAR=1900
DGENRE=
TTITLE0=Anton Goosen - Die kaap is weer hollands
TTITLE1=Sonja Heroldt - Jantjie
TTITLE2=Cora Marie - Gee my n bietjie country
TTITLE3=Phillip en Ella Kotze - Die weersiendag
TTITLE4=Leonore Veenemans - My land Suid-Afrika
TTITLE5=Sias Reinecke - Klein Karoo
TTITLE6=Accapella Koor - Dis n fees
TTITLE7=Min Shaw en Lance James - Bloedrooi rose
TTITLE8=Ge Korsten - Nicolene
TTITLE9=Bles Bridges - Ruiter van die windjie
TTITLE10=Johan Stemmet - Bianca
TTITLE11=Rina Hugo - n Tikkie vryheid
TTITLE12=Ruben Lennox - Toe ons nog kinders was
TTITLE13=Bles en Sunette Bridges - Blo in die lewe
TTITLE14=Herman Holtzhausen - Transkaroo
TTITLE15=Steve Hofmeyr - Laaste lag
TTITLE16=Anneli van Rooyen - Neem my op vlerke
TTITLE17=Die Troebadoer  - Sommer so sonder rede
TTITLE18=Kupido - Was ek maar n digter
TTITLE19=Anton Goosen - Silver de lange
EXTD=
EXTT0=
EXTT1=
EXTT2=
EXTT3=
EXTT4=
EXTT5=
EXTT6=
EXTT7=
EXTT8=
EXTT9=
EXTT10=
EXTT11=
EXTT12=
EXTT13=
EXTT14=
EXTT15=
EXTT16=
EXTT17=
EXTT18=
EXTT19=
PLAYORDER=
